<?xml version="1.0" encoding="utf-8"?>
<svg xmlns="http://www.w3.org/2000/svg"
	xmlns:xlink="http://www.w3.org/1999/xlink"
	width="15px" height="11px" viewBox="0 0 15 11">
<path fillRule="evenodd" d="M 15 10.09C 15 10.09 9.05 10.09 9.05 10.09 9.05 10.09 11.44 7.7 11.44 7.7 11.44 7.7 7.18 3.44 7.18 3.44 7.18 3.44 5.1 5.6 5.1 5.6 5.1 5.6 3.68 4.18 3.68 4.18 3.68 4.18 3.69 4.17 3.69 4.17 3.69 4.17 0.9 1.38 0.9 1.38 0.9 1.38 2.32-0.04 2.32-0.04 2.32-0.04 5.08 2.73 5.08 2.73 5.08 2.73 5.77 2.02 5.77 2.02 5.77 2.02 5.75 2 5.75 2 5.75 2 6.93 0.82 6.93 0.82 6.93 0.82 7.15 0.59 7.15 0.59 7.15 0.59 7.16 0.59 7.16 0.59 7.16 0.59 7.16 0.59 7.16 0.59 7.16 0.59 12.86 6.29 12.86 6.29 12.86 6.29 15 4.14 15 4.14 15 4.14 15 10.09 15 10.09Z" fill="rgb(158,7,7)"/></svg>