<?xml version="1.0"?>
<svg xmlns="http://www.w3.org/2000/svg" height="512px" viewBox="-78 -21 682 682.66669" width="512px"><path d="m496.804688 121.347656c-15.925782-18.570312-38.015626-30.855468-62.195313-34.589844l-159.574219-24.628906c-20.390625-38.070312-60.074218-62.128906-103.855468-62.128906h-2.179688v175h-172.5v136.855469c0 83.066406 67.578125 150.644531 150.640625 150.644531h24.039063c28.324218 0 55.703124-10.199219 77.09375-28.71875 11.84375-10.261719 21.441406-22.691406 28.335937-36.480469 20.636719 23.191407 50.140625 36.449219 81.25 36.449219h61.121094v49.695312c0 30.089844-2.714844 45.574219-9.070313 51.769532-6.222656 6.066406-21.066406 8.535156-51.21875 8.535156l-65.941406-1.207031c0-15.175781 12.347656-27.523438 27.523438-27.523438h20.652343v-37.5h-20.652343c-35.851563 0-65.023438 29.167969-65.023438 65.023438v26.679687c0 39.027344 31.75 70.777344 70.777344 70.777344h90.726562c57.757813 0 104.746094-46.988281 104.746094-104.742188v-347.167968c0-24.464844-8.769531-48.167969-24.695312-66.742188zm-158.671876 180.910156-.367187-18.382812c-.011719-.210938-.015625-.515625-.015625-.828125 0-22.664063 18.441406-41.101563 41.109375-41.101563 22.664063 0 41.101563 18.4375 41.101563 41.101563 0 .3125-.003907.617187-.011719.921875l-.371094 18.375zm0 0" fill="#d4d4d4"/><path d="m131.5 0h-24.945312l-110.054688 110.054688v27.445312h135zm0 0" fill="#d4d4d4"/></svg>
