<?xml version="1.0" encoding="utf-8"?>
<svg xmlns="http://www.w3.org/2000/svg"
	xmlns:xlink="http://www.w3.org/1999/xlink"
	width="14px" height="17px" viewBox="0 0 14 17">
<filter filterUnits="objectBoundingBox" x="0.00" y="5.56" width="100.00" height="94.44" id="filter0">
<feFlood flood-color="rgb(211,211,211)" result="coFloodOut1"/>
<feComposite in="coFloodOut1" in2="SourceAlpha" operator="in" result="coOverlay1"/>
<feBlend in="coOverlay1" in2="SourceGraphic" mode="normal" result="colorOverlay1"/>
</filter>
<path fillRule="evenodd" d="M 12.71 13.82C 12.51 14.51 12.25 15.08 11.9 15.48 11.72 15.68 11.55 15.87 11.31 15.94 10.24 16.25 7.38 16.03 6.95 15.94 6.73 15.9 6.6 15.85 6.51 15.81 6.42 15.77 6.38 15.73 6.33 15.69 6.31 15.67 6.27 15.63 6.24 15.55 6.18 15.44 6.13 15.27 6.09 15.03 6.04 14.8 6.02 14.49 6.02 14.11 6.02 13.94 6.02 13.61 6.04 13.4 6.05 13.13 6.14 12.68 6.27 12.51 6.46 12.27 6.75 12.12 7.06 12.04 7.36 11.96 8.97 12.04 8.97 12.04 8.97 12.04 8.97 12.97 8.97 12.97 8.97 12.97 8.53 12.94 8.53 12.94 8.53 12.94 7.87 12.81 7.78 13.25 7.69 13.69 7.87 13.88 7.99 14.01 8.11 14.14 10.66 14.12 10.73 14.04 10.85 13.91 10.92 13.74 10.96 13.54 11 13.34 11.02 13.11 11.02 12.86 11.02 12.51 10.99 12.12 10.95 11.78 10.94 11.67 10.91 11.45 10.86 11.37 10.76 11.23 10.62 11.13 10.44 11.05 10.18 10.94 9.09 10.88 8.74 10.82 8.38 10.76 8.01 10.71 7.68 10.63 7.44 10.56 7.25 10.27 7.09 10.13 6.85 9.93 6.7 9.68 6.58 9.48 6.53 9.38 6.48 9.29 6.44 9.22 6.42 9.18 6.4 9.15 6.37 9.13 6.36 9.11 6.34 9.1 6.33 9.09 6.31 9.08 6.29 9.08 6.26 9.08 6.26 9.08 6.26 9.08 6.26 9.08 6.26 9.08 6.26 9.08 6.26 9.08 6.24 9.08 6.22 9.09 6.2 9.1 6.19 9.11 6.18 9.12 6.17 9.14 6.15 9.16 6.15 9.19 6.14 9.21 6.13 9.27 6.12 9.33 6.11 9.41 6.09 9.68 6.08 10.1 6.01 10.44 5.98 10.62 5.93 10.77 5.87 10.87 5.84 10.93 5.81 10.96 5.77 10.99 5.74 11.01 5.7 11.03 5.65 11.03 5.65 11.03 5.65 11.03 5.65 11.03 5.49 11.03 5.18 11 4.79 10.96 4.21 10.9 3.47 10.8 2.82 10.66 2.5 10.59 2.2 10.52 1.96 10.44 1.84 10.4 1.74 10.36 1.66 10.31 1.57 10.27 1.51 10.23 1.47 10.19 1.37 10.09 1.27 9.93 1.17 9.72 1 9.36 0.84 8.86 0.69 8.31 0.48 7.49 0.15 6.71 0.03 5.9-0.09 5.08 0.49 5.01 0.49 5.01 0.49 5.01 4.04 5.07 4.18 5.01 4.32 4.96 4.8 5.03 4.87 4.91 4.94 4.78 4.98 4.47 4.98 4.28 4.98 3.79 4.99 1 4.99 0.52 4.99 0.04 5.44-0.02 5.56-0.02 5.71-0.03 6.32-0.03 6.53 0 6.74 0.03 6.93 0.08 7.08 0.15 7.23 0.22 7.36 0.33 7.45 0.46 7.6 0.65 7.69 0.87 7.73 1.05 7.81 1.33 10.88 1.87 10.88 1.87 10.88 1.87 11.43 1.94 11.43 1.94 12.76 2.06 12.76 2.59 12.84 3.59 12.91 4.53 13.05 6.28 13.05 8.15 13.05 9.86 13.1 12.45 12.71 13.82ZM 10.87 6.48C 10.87 6.48 10.42 5.1 9.52 5.04 8.62 4.98 7.52 6.78 8.29 6.9 9.07 7.02 8.77 6.72 9.37 6.69 9.97 6.66 10.21 6.87 10.66 6.9 11.11 6.93 10.87 6.63 10.87 6.48ZM 3.3 3.98C 2.58 3.98 0 3.96 0 3.96 0 3.96 3.94-0.03 3.94-0.03 3.94-0.03 3.97 3.17 3.97 3.17 3.97 3.17 4.02 3.98 3.3 3.98Z" fill="rgb(255,255,255)" filter="url(#filter0)"/></svg>