<?xml version="1.0" encoding="utf-8"?>
<svg xmlns="http://www.w3.org/2000/svg"
	xmlns:xlink="http://www.w3.org/1999/xlink"
	width="52px" height="51px" viewBox="0 0 52 51">
<clipPath id="clip0"><circle cx="26.00" cy="25.00" r="25.00"/></clipPath><g><circle cx="26.00" cy="25.00" r="25.00" fill="rgb(33,169,235)"/><path fillRule="evenodd" d="M 31.49 30.46C 31.49 30.46 48.07 39.1 48.07 39.1 48.07 39.1 48.07 50.15 48.07 50.15 48.07 50.15 3.51 50.15 3.51 50.15 3.51 50.15 3.51 39.28 3.51 39.28 3.51 39.28 20.22 30.52 20.22 30.52 20.22 30.52 20.22 26.18 20.22 26.18 18.57 23.64 17.45 20.65 17.45 19.2 17.45 18.26 17.51 17.39 17.63 16.6 17.65 15.97 17.75 14.92 18.05 13.68 18.05 13.68 18.31 10.56 18.31 10.56 18.31 10.56 18.74 9.35 18.74 9.35 18.74 9.35 20.38 8.66 20.38 8.66 20.38 8.65 20.39 8.64 20.39 8.64 20.39 8.64 19.7 7.34 19.7 7.34 19.7 7.34 19.88 6.3 19.88 6.3 19.88 6.3 20.92 6.39 20.92 6.39 20.92 6.39 21.79 5.69 21.79 5.69 21.79 5.69 22.75 5.43 22.75 5.43 22.75 5.43 23.06 6.06 23.06 6.06 24.23 5.23 25.64 4.52 27.36 4.04 27.36 4.04 27.1 4.82 27.1 4.82 27.1 4.82 30.84 2.91 30.84 2.91 30.84 2.91 29.97 4.91 29.97 4.91 29.97 4.91 30.93 6.74 30.93 6.74 30.93 6.74 31.36 7.17 31.36 7.17 31.36 7.17 31.97 7.26 31.97 7.26 31.97 7.26 32.23 7.61 32.23 7.61 32.23 7.61 34.41 10.65 34.41 10.65 34.41 10.65 33.01 11.96 33.01 11.96 33.01 11.96 33.62 12.65 33.62 12.65 33.62 12.65 35.45 14.13 35.45 14.13 35.45 14.13 35.19 15 35.19 15 35.19 15 34.06 16.57 34.06 16.57 34.06 16.57 34.01 16.57 34.01 16.57 34.13 17.37 34.19 18.24 34.19 19.2 34.19 20.7 33.05 23.74 31.36 26.3 31.36 26.3 31.36 30.46 31.36 30.46 31.36 30.46 31.49 30.46 31.49 30.46Z" fill="rgb(221,221,221)" opacity="0.50" clip-path="url(#clip0)"/></g></svg>